<svg width="192" height="192" viewBox="0 0 192 192" fill="none" xmlns="http://www.w3.org/2000/svg">
<path d="M73.4762 73.4762H128C130.761 73.4762 133 75.7148 133 78.4762V118C133 126.284 126.284 133 118 133H78.4762C75.7148 133 73.4762 130.761 73.4762 128V73.4762Z" fill="#CBCEDB"/>
<path d="M58 73C58 64.7157 64.7157 58 73 58H112.524C115.285 58 117.524 60.2386 117.524 63V102.524C117.524 110.808 110.808 117.524 102.524 117.524H63C60.2386 117.524 58 115.285 58 112.524V73Z" fill="url(#paint0_linear)"/>
<path d="M81.0348 96.5427H84.4449C87.3863 96.5427 89.6246 95.7751 91.1598 94.24C92.6949 92.6931 93.4625 90.4431 93.4625 87.49C93.4625 84.3259 92.6715 82.029 91.0895 80.5993C89.5074 79.1579 87.1227 78.4372 83.9352 78.4372H81.0348V96.5427ZM76.2711 100.357V74.6052H83.7242C85.9742 74.6052 87.9899 74.863 89.7711 75.3786C91.5524 75.8943 93.0817 76.6735 94.359 77.7165C95.6481 78.7478 96.6324 80.0837 97.3121 81.7243C98.0035 83.3532 98.3492 85.24 98.3492 87.3845C98.3492 91.5446 97.0953 94.7497 94.5875 96.9997C92.0797 99.238 88.6051 100.357 84.1637 100.357H76.2711Z" fill="url(#paint1_linear)"/>
<defs>
<linearGradient id="paint0_linear" x1="117.524" y1="58" x2="58" y2="117.524" gradientUnits="userSpaceOnUse">
<stop stop-color="#3F51B5"/>
<stop offset="1" stop-color="#4863F4"/>
</linearGradient>
<linearGradient id="paint1_linear" x1="87.7619" y1="87.7414" x2="74.9742" y2="112.35" gradientUnits="userSpaceOnUse">
<stop stop-color="white"/>
<stop offset="1" stop-color="#DBDBDB" stop-opacity="0.88"/>
</linearGradient>
</defs>
</svg>
